<svg xmlns="http://www.w3.org/2000/svg" width="1200" height="880" viewBox="0 0 1200 880" role="img" aria-labelledby="title desc">
<title id="title">Current proximity flow compared with proposed road-aware alerts</title><desc id="desc">Left: Vehicle GPS, Distance / Radius, Nearby users, Notify. Right: Vehicle GPS, Recent trajectory, Meili map matching, Road context, Nearby candidates plus Direction, Notification decision, Notify. Only the matching and context steps are highlighted.</desc>
<defs><marker id="arrow" viewBox="0 0 10 10" refX="8" refY="5" markerWidth="7" markerHeight="7" orient="auto-start-reverse"><path d="M 1 1 L 8 5 L 1 9" fill="none" stroke="#246346" stroke-width="1.6"/></marker></defs>
<rect width="1200" height="880" fill="#F7F7F2"/>
<g font-family="Inter, -apple-system, BlinkMacSystemFont, 'Segoe UI', Arial, sans-serif"><text x="270" y="58" font-size="23" fill="#657068" font-weight="700" text-anchor="middle">CURRENT</text><text x="930" y="58" font-size="23" fill="#246346" font-weight="700" text-anchor="middle">ROAD-AWARE</text><text x="930" y="90" font-size="19" fill="#657068" font-weight="400" text-anchor="middle">Proposed</text><line x1="600" y1="110" x2="600" y2="790" stroke="#D5DCD4" stroke-width="2" /><rect x="50" y="120" width="440" height="66" rx="14" fill="#FFFFFF" stroke="#D5DCD4" /><text x="270" y="162" font-size="24" fill="#202922" font-weight="600" text-anchor="middle">Vehicle GPS</text><line x1="270" y1="199" x2="270" y2="304" stroke="#246346" stroke-width="2" marker-end="url(#arrow)"/><rect x="50" y="320" width="440" height="66" rx="14" fill="#FFFFFF" stroke="#D5DCD4" /><text x="270" y="362" font-size="24" fill="#202922" font-weight="600" text-anchor="middle">Distance / Radius</text><line x1="270" y1="399" x2="270" y2="504" stroke="#246346" stroke-width="2" marker-end="url(#arrow)"/><rect x="50" y="520" width="440" height="66" rx="14" fill="#FFFFFF" stroke="#D5DCD4" /><text x="270" y="562" font-size="24" fill="#202922" font-weight="600" text-anchor="middle">Nearby users</text><line x1="270" y1="599" x2="270" y2="704" stroke="#246346" stroke-width="2" marker-end="url(#arrow)"/><rect x="50" y="720" width="440" height="66" rx="14" fill="#FFFFFF" stroke="#D5DCD4" /><text x="270" y="762" font-size="24" fill="#202922" font-weight="600" text-anchor="middle">Notify</text><rect x="710" y="120" width="440" height="66" rx="14" fill="#FFFFFF" stroke="#D5DCD4" /><text x="930" y="162" font-size="24" fill="#202922" font-weight="600" text-anchor="middle">Vehicle GPS</text><line x1="930" y1="192" x2="930" y2="210" stroke="#246346" stroke-width="2" marker-end="url(#arrow)"/><rect x="710" y="220" width="440" height="66" rx="14" fill="#FFFFFF" stroke="#D5DCD4" /><text x="930" y="262" font-size="24" fill="#202922" font-weight="600" text-anchor="middle">Recent trajectory</text><line x1="930" y1="292" x2="930" y2="310" stroke="#246346" stroke-width="2" marker-end="url(#arrow)"/><rect x="710" y="320" width="440" height="66" rx="14" fill="#E3EDE2" stroke="#85A48E" /><text x="930" y="362" font-size="24" fill="#246346" font-weight="600" text-anchor="middle">Meili map matching</text><line x1="930" y1="392" x2="930" y2="410" stroke="#246346" stroke-width="2" marker-end="url(#arrow)"/><rect x="710" y="420" width="440" height="66" rx="14" fill="#E3EDE2" stroke="#85A48E" /><text x="930" y="462" font-size="24" fill="#246346" font-weight="600" text-anchor="middle">Road context</text><line x1="930" y1="492" x2="930" y2="510" stroke="#246346" stroke-width="2" marker-end="url(#arrow)"/><rect x="710" y="520" width="440" height="66" rx="14" fill="#FFFFFF" stroke="#D5DCD4" /><text x="930" y="562" font-size="24" fill="#202922" font-weight="600" text-anchor="middle">Nearby candidates + Direction</text><line x1="930" y1="592" x2="930" y2="610" stroke="#246346" stroke-width="2" marker-end="url(#arrow)"/><rect x="710" y="620" width="440" height="66" rx="14" fill="#FFFFFF" stroke="#D5DCD4" /><text x="930" y="662" font-size="24" fill="#202922" font-weight="600" text-anchor="middle">Notification decision</text><line x1="930" y1="692" x2="930" y2="710" stroke="#246346" stroke-width="2" marker-end="url(#arrow)"/><rect x="710" y="720" width="440" height="66" rx="14" fill="#FFFFFF" stroke="#D5DCD4" /><text x="930" y="762" font-size="24" fill="#202922" font-weight="600" text-anchor="middle">Notify</text><text x="600" y="842" font-size="24" fill="#202922" font-weight="600" text-anchor="middle">Meili adds road context. Trash Buddy decides who receives an alert.</text></g></svg>